<?xml version="1.0" encoding="utf-8"?>
<!-- Generator: Adobe Illustrator 16.0.0, SVG Export Plug-In . SVG Version: 6.00 Build 0)  -->
<!DOCTYPE svg PUBLIC "-//W3C//DTD SVG 1.1//EN" "http://www.w3.org/Graphics/SVG/1.1/DTD/svg11.dtd">
<svg version="1.1" id="Capa_1" xmlns="http://www.w3.org/2000/svg" xmlns:xlink="http://www.w3.org/1999/xlink" x="0px" y="0px"
	 width="50px" height="50px" viewBox="272.64 395.945 50 50" enable-background="new 272.64 395.945 50 50" xml:space="preserve">
<g>
	<g>
		<path fill="#96BAEA" d="M310.629,411.269H285.98c-4.073,0-7.389,3.314-7.389,7.388c0,0.458,0.372,0.829,0.83,0.829h31.208
			c1.426,0,2.586-1.159,2.586-2.584v-3.049C313.215,412.428,312.055,411.269,310.629,411.269z M294.208,412.927h4.839v4.901h-4.839
			V412.927z M292.548,417.827h-4.839v-4.901h4.839V417.827z M300.706,412.927h4.839v4.901h-4.839V412.927L300.706,412.927z
			 M285.98,412.927h0.071v4.901h-5.741C280.713,415.06,283.102,412.927,285.98,412.927z M311.556,416.902
			c0,0.511-0.415,0.926-0.927,0.926h-3.426v-4.901h3.426c0.512,0,0.927,0.416,0.927,0.926V416.902z"/>
		<path fill="#96BAEA" d="M284.277,426.906c-1.345,0-2.438,1.094-2.438,2.438s1.094,2.439,2.438,2.439
			c1.344,0,2.438-1.096,2.438-2.439S285.621,426.906,284.277,426.906z M284.277,430.123c-0.431,0-0.781-0.35-0.781-0.779
			s0.351-0.781,0.781-0.781c0.43,0,0.78,0.352,0.78,0.781S284.707,430.123,284.277,430.123z"/>
		<path fill="#96BAEA" d="M310.022,426.906c-1.345,0-2.438,1.094-2.438,2.438s1.094,2.439,2.438,2.439
			c1.344,0,2.438-1.096,2.438-2.439S311.366,426.906,310.022,426.906z M310.022,430.123c-0.431,0-0.78-0.35-0.78-0.779
			s0.35-0.781,0.78-0.781c0.43,0,0.78,0.352,0.78,0.781S310.452,430.123,310.022,430.123z"/>
		<path fill="#96BAEA" d="M322.348,426.801c0-0.455-0.365-0.822-0.819-0.828v-10.344c0-4.411-3.589-8.001-8.001-8.001h-25.959
			c-7.526,0-13.65,6.124-13.65,13.651v4.694h-0.156c-0.458,0-0.83,0.371-0.83,0.828c0,0.459,0.372,0.828,0.83,0.828h0.156v1.715
			c0,0.457,0.371,0.828,0.829,0.828h4.681c0.396,2.32,2.419,4.092,4.849,4.092s4.452-1.771,4.848-4.092h16.049
			c0.396,2.32,2.419,4.092,4.849,4.092c2.429,0,4.452-1.771,4.848-4.092h5.829c0.46,0,0.83-0.371,0.83-0.828v-1.715
			C321.983,427.625,322.348,427.256,322.348,426.801z M319.871,419.67h-1.346c-1.184,0-2.146-0.963-2.146-2.146v-3.509
			c0-0.601,0.487-1.089,1.087-1.089h1.8c0.388,0.82,0.605,1.736,0.605,2.702V419.67L319.871,419.67L319.871,419.67z
			 M284.277,432.603c-1.798,0-3.262-1.463-3.262-3.26c0-1.799,1.464-3.262,3.262-3.262s3.261,1.463,3.261,3.262
			C287.538,431.14,286.075,432.603,284.277,432.603z M310.022,432.603c-1.798,0-3.261-1.463-3.261-3.26
			c0-1.799,1.463-3.262,3.261-3.262s3.261,1.463,3.261,3.262C313.283,431.14,311.82,432.603,310.022,432.603z M314.87,428.515
			c-0.395-2.32-2.419-4.092-4.848-4.092c-2.43,0-4.452,1.771-4.849,4.092h-16.049c-0.396-2.32-2.418-4.092-4.848-4.092
			s-4.453,1.771-4.849,4.092h-3.852v-0.887h2.054c0.458,0,0.83-0.369,0.83-0.828c0-0.457-0.372-0.828-0.83-0.828h-2.054v-4.694
			c0-6.613,5.38-11.993,11.992-11.993h25.959c1.81,0,3.443,0.763,4.6,1.983h-0.662c-1.514,0-2.745,1.232-2.745,2.747v3.509
			c0,2.098,1.707,3.804,3.805,3.804h1.346v2.101h-0.783c-0.458,0-0.83,0.371-0.83,0.828c0,0.459,0.372,0.83,0.83,0.83h0.783v0.885
			h-2.222c-0.457,0-0.828,0.371-0.828,0.828c0,0.459,0.371,0.828,0.828,0.828h2.222v0.887H314.87L314.87,428.515z"/>
	</g>
</g>
</svg>
