<?xml version="1.0" encoding="utf-8"?>
<!-- Generator: Adobe Illustrator 16.0.0, SVG Export Plug-In . SVG Version: 6.00 Build 0)  -->
<!DOCTYPE svg PUBLIC "-//W3C//DTD SVG 1.1//EN" "http://www.w3.org/Graphics/SVG/1.1/DTD/svg11.dtd">
<svg version="1.1" id="Capa_1" xmlns="http://www.w3.org/2000/svg" xmlns:xlink="http://www.w3.org/1999/xlink" x="0px" y="0px"
	 width="50px" height="50px" viewBox="272.64 395.945 50 50" enable-background="new 272.64 395.945 50 50" xml:space="preserve">
<g>
	<g>
		<g>
			<path fill="#87D7F1" d="M309.068,428.181h-2.857c-0.789,0-1.43,0.641-1.43,1.43c0,0.788,0.641,1.428,1.43,1.428h2.857
				c0.789,0,1.428-0.64,1.428-1.428C310.496,428.822,309.857,428.181,309.068,428.181z"/>
		</g>
	</g>
	<g>
		<g>
			<path fill="#87D7F1" d="M289.07,428.181h-2.856c-0.789,0-1.429,0.641-1.429,1.43c0,0.788,0.64,1.428,1.429,1.428h2.856
				c0.789,0,1.428-0.64,1.428-1.428C290.498,428.822,289.859,428.181,289.07,428.181z"/>
		</g>
	</g>
	<g>
		<g>
			<path fill="#87D7F1" d="M318.57,442.811l-7.402-6.375c2.916-0.899,5.041-3.619,5.041-6.825v-20.188
				c0-3.938-3.203-7.142-7.141-7.142h-1.975l-1.672-3.345c-0.73-1.461-2.199-2.368-3.833-2.368h-7.896
				c-1.634,0-3.103,0.907-3.833,2.368l-1.672,3.345h-1.974c-3.938,0-7.142,3.204-7.142,7.142v20.188
				c0,3.206,2.125,5.926,5.041,6.825l-7.401,6.376c-0.598,0.514-0.665,1.416-0.15,2.014c0.515,0.598,1.417,0.665,2.015,0.15
				l2.915-2.511h32.301l2.914,2.511c0.598,0.515,1.5,0.447,2.014-0.15C319.234,444.228,319.167,443.326,318.57,442.811z
				 M292.415,400.214c0.244-0.486,0.733-0.789,1.278-0.789h7.896c0.544,0,1.034,0.303,1.276,0.789l1.035,2.067h-12.519
				L292.415,400.214z M286.213,405.129h2.85c0.002,0,0.004,0,0.006,0c0.003,0,0.006,0,0.009,0h19.99
				c1.861,0,3.449,1.203,4.039,2.866h-30.703h-0.23C282.764,406.332,284.351,405.129,286.213,405.129z M312.685,410.846
				l-3.508,8.929c-0.654,1.636-2.215,2.693-3.979,2.693h-15.118c-1.762,0-3.324-1.058-3.975-2.685l-3.51-8.938H312.685z
				 M281.928,429.611v-12.648l1.522,3.874c1.091,2.727,3.694,4.488,6.631,4.488h15.118c2.938,0,5.541-1.762,6.635-4.497l1.518-3.865
				v12.648c0,2.361-1.922,4.284-4.283,4.284h-7.143v-1.428c0-2.363-1.923-4.286-4.285-4.286c-2.363,0-4.285,1.923-4.285,4.286v1.428
				h-7.142C283.851,433.895,281.928,431.972,281.928,429.611z M299.068,432.468v1.428h-2.856v-1.428
				c0-0.788,0.642-1.429,1.429-1.429S299.068,431.679,299.068,432.468z M284.806,439.608l3.317-2.856h19.035l3.316,2.856H284.806z"
				/>
		</g>
	</g>
</g>
</svg>
