<?xml version="1.0" encoding="utf-8"?>
<!-- Generator: Adobe Illustrator 16.0.0, SVG Export Plug-In . SVG Version: 6.00 Build 0)  -->
<!DOCTYPE svg PUBLIC "-//W3C//DTD SVG 1.1//EN" "http://www.w3.org/Graphics/SVG/1.1/DTD/svg11.dtd">
<svg version="1.1" id="Layer_1" xmlns="http://www.w3.org/2000/svg" xmlns:xlink="http://www.w3.org/1999/xlink" x="0px" y="0px"
	 width="50px" height="50px" viewBox="272.64 395.945 50 50" enable-background="new 272.64 395.945 50 50" xml:space="preserve">
<g>
	<g>
		<g>
			<rect x="313.044" y="425.424" fill="#9AB2E8" width="2.105" height="1.482"/>
		</g>
	</g>
	<g>
		<g>
			<rect x="309.882" y="425.424" fill="#9AB2E8" width="2.107" height="1.482"/>
		</g>
	</g>
	<g>
		<g>
			<rect x="290.918" y="427.529" fill="#9AB2E8" width="4.214" height="1.484"/>
		</g>
	</g>
	<g>
		<g>
			<rect x="287.756" y="427.529" fill="#9AB2E8" width="2.107" height="1.484"/>
		</g>
	</g>
	<g>
		<g>
			<rect x="296.185" y="427.529" fill="#9AB2E8" width="2.108" height="1.484"/>
		</g>
	</g>
	<g>
		<g>
			<path fill="#9AB2E8" d="M321.16,421.231v-3.271l-11.199,1.244l-4.629-2.944c-0.209-1.954-1.869-3.481-3.879-3.481h-11.281
				l-6.105-6.104l-1.048,1.048l5.056,5.056h-4.928l-3.096,4.644h7.717l-1.38,6.628l-1.642,0.133
				c-1.669,0.136-3.24,0.861-4.423,2.045l-2.354,2.355h-2.197l-3.096,4.643h39.315v-1.482h-36.545l1.119-1.678h2.018l2.789-2.789
				c0.935-0.936,2.176-1.508,3.495-1.615l1.206-0.098l3.369-0.273l14.753-1.197l9.73-0.788l6.35-0.515
				c-0.711,1.445-2.148,4.016-4.207,6.035l1.039,1.061c3.24-3.18,4.982-7.48,5.055-7.662l0.445-1.111L321.16,421.231z
				 M291.23,423.658l-3.303,0.268l1.664-7.986h-6.77l1.118-1.678h17.514c1.076,0,1.99,0.706,2.305,1.679H291.23V423.658z
				 M300.712,422.888l-8,0.648v-6.114h11.685l3.211,2.043l-6.896,0.766V422.888L300.712,422.888z M319.677,421.351l-17.482,1.417
				v-1.208l17.482-1.943V421.351z"/>
		</g>
	</g>
	<g>
		<g>
			<path fill="#9AB2E8" d="M313.57,429.636v1.484c1.045,0,1.893,0.848,1.893,1.891c0,1.045-0.85,1.893-1.893,1.893h-8.955v1.484
				h8.955c1.861,0,3.377-1.516,3.377-3.377C316.947,431.152,315.431,429.636,313.57,429.636z"/>
		</g>
	</g>
	<g>
		<g>
			<path fill="#9AB2E8" d="M316.73,435.959v1.482c1.045,0,1.895,0.85,1.895,1.893c0,1.045-0.85,1.893-1.895,1.893h-18.438v1.482
				h18.438c1.863,0,3.377-1.514,3.377-3.375S318.593,435.959,316.73,435.959z"/>
		</g>
	</g>
	<g>
		<g>
			<rect x="285.649" y="441.226" fill="#9AB2E8" width="10.536" height="1.482"/>
		</g>
	</g>
	<g>
		<g>
			<rect x="282.489" y="441.226" fill="#9AB2E8" width="1.581" height="1.482"/>
		</g>
	</g>
	<g>
		<g>
			<rect x="301.453" y="434.904" fill="#9AB2E8" width="1.582" height="1.482"/>
		</g>
	</g>
	<g>
		<g>
			<path fill="#9AB2E8" d="M302.507,399.181c-0.834,0-1.586,0.36-2.107,0.934c-0.521-0.573-1.273-0.934-2.107-0.934
				c-1.571,0-2.848,1.278-2.848,2.849h1.482c-0.001-0.753,0.613-1.366,1.365-1.366c0.754,0,1.367,0.613,1.367,1.366h1.482
				c0-0.753,0.611-1.366,1.365-1.366s1.365,0.613,1.365,1.366h1.482C305.355,400.459,304.078,399.181,302.507,399.181z"/>
		</g>
	</g>
	<g>
		<g>
			<path fill="#9AB2E8" d="M316.205,406.457c-0.834,0-1.586,0.36-2.107,0.934c-0.521-0.573-1.273-0.934-2.107-0.934
				c-1.57,0-2.848,1.278-2.848,2.849h1.482c0-0.753,0.613-1.366,1.365-1.366c0.754,0,1.365,0.612,1.365,1.366h1.484
				c0-0.753,0.611-1.366,1.365-1.366s1.365,0.612,1.365,1.366h1.482C319.052,407.735,317.775,406.457,316.205,406.457z"/>
		</g>
	</g>
</g>
</svg>
