<?xml version="1.0" encoding="utf-8"?>
<!-- Generator: Adobe Illustrator 16.0.0, SVG Export Plug-In . SVG Version: 6.00 Build 0)  -->
<!DOCTYPE svg PUBLIC "-//W3C//DTD SVG 1.1//EN" "http://www.w3.org/Graphics/SVG/1.1/DTD/svg11.dtd">
<svg version="1.1" id="Capa_1" xmlns="http://www.w3.org/2000/svg" xmlns:xlink="http://www.w3.org/1999/xlink" x="0px" y="0px"
	 width="50px" height="50px" viewBox="272.64 395.945 50 50" enable-background="new 272.64 395.945 50 50" xml:space="preserve">
<path fill="#89D3F0" d="M322.024,419.256c-0.151-0.21-0.399-0.332-0.657-0.317l-9.909,0.479v-2.775c0-1.265-1.028-2.295-2.294-2.295
	h-21.756c-0.199,0-0.393,0.026-0.579,0.074l-0.639-2.555c-0.103-0.41-0.518-0.659-0.928-0.557c-0.41,0.103-0.659,0.518-0.557,0.928
	l0.765,3.06c0.007,0.026,0.015,0.051,0.024,0.076c-0.142,0.213-0.249,0.452-0.313,0.712l-0.331,1.321h-5.522v-2.295v-1.53v-1.53
	c0-0.422-0.343-0.765-0.765-0.765h-4.59c-0.265,0-0.511,0.138-0.65,0.363c-0.14,0.225-0.152,0.507-0.034,0.744l0.594,1.188
	l-0.594,1.188c-0.119,0.237-0.106,0.519,0.034,0.745c0.139,0.226,0.385,0.363,0.65,0.363h3.825v1.545
	c-0.557,0.064-1.076,0.332-1.453,0.755l-2.943,3.311c-0.008,0.01-0.014,0.018-0.021,0.027c-0.006,0.008-0.013,0.015-0.019,0.022
	c-0.017,0.023-0.033,0.046-0.047,0.07c0,0-0.001,0.002-0.001,0.002c0,0.001,0,0.001,0,0.001c-0.016,0.026-0.029,0.054-0.041,0.081
	c-0.002,0.005-0.004,0.01-0.007,0.015c-0.009,0.023-0.017,0.046-0.023,0.068c-0.002,0.007-0.005,0.015-0.007,0.022
	c-0.006,0.021-0.011,0.044-0.014,0.065c-0.001,0.008-0.003,0.015-0.004,0.021c-0.004,0.029-0.007,0.057-0.008,0.086
	c0,0.003,0,0.006,0,0.01c-0.001,0.024,0,0.05,0.002,0.076c0.001,0.008,0.002,0.018,0.003,0.026c0.002,0.021,0.005,0.04,0.009,0.06
	c0.001,0.01,0.003,0.018,0.005,0.026c0.005,0.025,0.013,0.05,0.021,0.073c0.001,0.003,0.002,0.006,0.003,0.01
	c0.01,0.029,0.022,0.057,0.035,0.084c0,0,0.001,0.002,0.002,0.003l1.661,3.322c0.521,1.043,1.57,1.691,2.737,1.691h38.362
	c1.421,0,2.842-1.251,4.342-3.822c1.022-1.753,1.697-3.479,1.727-3.551C322.209,419.738,322.175,419.466,322.024,419.256z
	 M308.398,419.566v-1.394h1.529v1.319L308.398,419.566z M290.038,420.454v-2.281h1.53v2.208L290.038,420.454z M293.098,418.173h1.53
	v2.059l-1.53,0.075V418.173z M296.158,418.173h1.53v1.911l-1.53,0.075V418.173z M299.218,418.173h1.529v1.763l-1.529,0.075V418.173z
	 M302.278,418.173h1.53v1.53c0,0.029,0.002,0.058,0.005,0.085l-1.535,0.075V418.173z M305.337,419.703v-1.53h1.53v1.467l-1.53,0.074
	C305.337,419.71,305.337,419.706,305.337,419.703z M275.21,414.347l0.211-0.423c0.108-0.215,0.108-0.469,0-0.684l-0.211-0.423h2.587
	v0.765v0.765H275.21z M277.488,419.194c0.145-0.163,0.353-0.257,0.572-0.257h7.388c0.351,0,0.657-0.239,0.742-0.579l0.476-1.901
	c0.085-0.341,0.39-0.58,0.742-0.58h21.756c0.421,0,0.764,0.343,0.764,0.765h-19.89c-0.843,0-1.53,0.687-1.53,1.53v2.356
	l-12.754,0.618L277.488,419.194z M316.048,425.823h-38.362c-0.553,0-1.052-0.291-1.325-0.766h2.201c0.422,0,0.765-0.343,0.765-0.765
	c0-0.423-0.343-0.766-0.765-0.766h-2.969l-0.412-0.821l45.036-2.18c-0.198,0.434-0.452,0.959-0.747,1.512
	c-2.063,0.228-13.675,1.489-17.957,1.489h-19.891c-0.422,0-0.765,0.343-0.765,0.766c0,0.422,0.342,0.765,0.765,0.765h19.891
	c3.887,0,13.32-0.978,16.979-1.374C317.208,425.594,316.373,425.823,316.048,425.823z"/>
</svg>
