<?xml version="1.0" encoding="utf-8"?>
<!-- Generator: Adobe Illustrator 16.0.0, SVG Export Plug-In . SVG Version: 6.00 Build 0)  -->
<!DOCTYPE svg PUBLIC "-//W3C//DTD SVG 1.1//EN" "http://www.w3.org/Graphics/SVG/1.1/DTD/svg11.dtd">
<svg version="1.1" id="Capa_1" xmlns="http://www.w3.org/2000/svg" xmlns:xlink="http://www.w3.org/1999/xlink" x="0px" y="0px"
	 width="50px" height="50px" viewBox="272.64 395.945 50 50" enable-background="new 272.64 395.945 50 50" xml:space="preserve">
<g>
	<g>
		<g>
			<path fill="#9BB1E8" d="M319.459,434.336c-0.13-0.384-0.546-0.588-0.928-0.458c-0.832,0.281-1.717,0.419-2.704,0.419
				c-2.098,0-3.273-0.605-4.132-1.049c-0.693-0.357-1.037-0.516-1.935-0.516c-0.896,0-1.24,0.158-1.936,0.518
				c-0.105,0.054-0.22,0.111-0.34,0.173c-0.362,0.179-0.51,0.619-0.33,0.981c0.181,0.362,0.619,0.51,0.981,0.329
				c0.128-0.063,0.248-0.125,0.364-0.185c0.577-0.298,0.682-0.352,1.26-0.352c0.58,0,0.685,0.054,1.264,0.352
				c0.878,0.453,2.35,1.213,4.803,1.213c1.15,0,2.188-0.163,3.174-0.499C319.385,435.134,319.589,434.719,319.459,434.336z"/>
		</g>
	</g>
	<g>
		<g>
			<path fill="#9BB1E8" d="M305.412,434.916c-0.038-0.403-0.396-0.698-0.798-0.661c-0.294,0.028-0.603,0.042-0.916,0.042
				c-2.099,0-3.273-0.605-4.133-1.049c-0.691-0.357-1.036-0.516-1.933-0.516s-1.24,0.158-1.932,0.515
				c-0.858,0.442-2.034,1.05-4.132,1.05c-2.099,0-3.272-0.607-4.131-1.05c-0.692-0.356-1.036-0.515-1.931-0.515
				c-0.896,0-1.239,0.158-1.932,0.515c-0.605,0.313-1.359,0.704-2.498,0.909c-0.397,0.073-0.661,0.454-0.589,0.852
				c0.072,0.398,0.453,0.662,0.851,0.59c1.354-0.246,2.252-0.71,2.908-1.049c0.578-0.298,0.683-0.352,1.26-0.352
				s0.682,0.054,1.259,0.352c0.879,0.453,2.349,1.213,4.803,1.213s3.924-0.76,4.804-1.213c0.577-0.298,0.681-0.352,1.26-0.352
				s0.684,0.054,1.262,0.352c0.879,0.453,2.349,1.213,4.804,1.213c0.357,0,0.713-0.017,1.053-0.048
				C305.153,435.675,305.449,435.318,305.412,434.916z"/>
		</g>
	</g>
	<g>
		<g>
			<path fill="#9BB1E8" d="M278.178,434.213c-0.499-0.068-0.967-0.177-1.43-0.334c-0.383-0.13-0.799,0.075-0.928,0.458
				c-0.13,0.384,0.075,0.8,0.458,0.929c0.553,0.187,1.108,0.318,1.7,0.398c0.033,0.005,0.067,0.008,0.1,0.008
				c0.36,0,0.675-0.266,0.726-0.633C278.859,434.638,278.579,434.268,278.178,434.213z"/>
		</g>
	</g>
	<g>
		<g>
			<path fill="#9BB1E8" d="M321.896,429.602c-1.694,0-2.584,0.459-3.369,0.864c-0.015,0.006-0.028,0.014-0.043,0.021l3.387-3.056
				c0.481-0.436,0.758-1.058,0.758-1.706v-0.87c0-0.835-0.68-1.513-1.516-1.513h-5.085l-5.577-8.368
				c-0.427-0.641-1.142-1.022-1.911-1.022h-8.552c-0.72,0-1.407,0.343-1.838,0.919l-1.658,2.211h-2.236l-1.398-4.194
				c-0.099-0.298-0.379-0.5-0.694-0.5h-3.129c-0.236,0-0.457,0.113-0.595,0.304c-0.137,0.191-0.174,0.436-0.101,0.66l1.244,3.731
				h-1.586l-1.398-4.194c-0.1-0.299-0.38-0.501-0.695-0.501h-3.129c-0.236,0-0.457,0.113-0.594,0.304
				c-0.138,0.191-0.176,0.436-0.101,0.66l1.243,3.731h-1.798c-0.77,0-1.484,0.382-1.911,1.023l-3.491,5.237h-0.391
				c-0.835,0-1.515,0.68-1.515,1.515v4.785c-0.255-0.025-0.531-0.041-0.833-0.041c-0.404,0-0.732,0.328-0.732,0.731
				c0,0.404,0.328,0.732,0.732,0.732c1.338,0,1.967,0.325,2.695,0.701c0.784,0.405,1.673,0.865,3.366,0.865s2.582-0.46,3.366-0.865
				c0.729-0.376,1.357-0.701,2.695-0.701s1.966,0.325,2.694,0.701c0.785,0.405,1.675,0.865,3.367,0.865
				c1.694,0,2.583-0.46,3.367-0.865c0.729-0.376,1.357-0.701,2.696-0.701c1.338,0,1.969,0.325,2.696,0.701
				c0.786,0.405,1.675,0.863,3.369,0.863s2.583-0.458,3.367-0.863c0.729-0.376,1.358-0.701,2.696-0.701
				c1.339,0,1.969,0.325,2.698,0.701c0.785,0.405,1.675,0.863,3.368,0.863c0.002,0,0.002,0,0.002,0l0,0l0,0
				c1.694,0,2.583-0.458,3.369-0.863c0.729-0.376,1.358-0.701,2.697-0.701c0.404,0,0.732-0.328,0.732-0.732
				C322.628,429.93,322.3,429.602,321.896,429.602z M291.635,413.852l1.076,3.231h-1.586l-1.076-3.231H291.635z M285.376,413.852
				l1.076,3.231h-1.587l-1.076-3.231H285.376z M278.993,421.677h29.603c0.404,0,0.73-0.329,0.73-0.732
				c0-0.404-0.326-0.732-0.73-0.732h-28.627l0.863-1.294c0.154-0.233,0.414-0.372,0.693-0.372h24.723
				c0.404,0,0.731-0.327,0.731-0.731c0-0.405-0.327-0.732-0.731-0.732h-7.925l0.998-1.333c0.156-0.209,0.405-0.333,0.667-0.333
				h8.552c0.279,0,0.539,0.139,0.692,0.371l0.863,1.295h-0.719c-0.404,0-0.73,0.327-0.73,0.732c0,0.404,0.326,0.731,0.73,0.731
				h1.696l1.109,1.666h-0.458c-0.404,0-0.732,0.328-0.732,0.732c0,0.404,0.328,0.732,0.732,0.732h1.435l1.111,1.666h-2.546h-29.732
				h-4.109L278.993,421.677z M312.557,425.639c0,0.459-0.374,0.834-0.833,0.834h-2.398v-1.666h2.398
				C312.183,424.807,312.557,425.18,312.557,425.639z M307.863,424.807v1.664h-3.231v-1.664H307.863z M303.168,424.807v1.664h-3.231
				v-1.664H303.168z M298.474,424.807v1.664h-3.231v-1.664H298.474z M293.778,424.807v1.664h-3.229v-1.664H293.778z
				 M289.083,424.807v1.664h-3.23v-1.664H289.083z M284.389,424.807v1.664h-2.397c-0.46,0-0.833-0.373-0.833-0.832
				s0.373-0.832,0.833-0.832H284.389L284.389,424.807z M315.553,431.162c-1.154-0.042-1.746-0.346-2.423-0.695
				c-0.784-0.405-1.675-0.864-3.369-0.864s-2.583,0.459-3.367,0.864c-0.729,0.376-1.358,0.701-2.696,0.701
				c-1.339,0-1.969-0.325-2.698-0.701c-0.784-0.405-1.673-0.864-3.367-0.864s-2.583,0.459-3.367,0.864
				c-0.729,0.376-1.358,0.701-2.696,0.701s-1.967-0.325-2.695-0.701c-0.784-0.405-1.673-0.864-3.366-0.864s-2.582,0.459-3.367,0.864
				c-0.729,0.376-1.356,0.701-2.694,0.701s-1.966-0.325-2.694-0.701c-0.322-0.167-0.664-0.341-1.07-0.49v-5.12
				c0-0.026,0.022-0.049,0.051-0.049h4.119c-0.101,0.258-0.157,0.538-0.157,0.832c0,1.267,1.03,2.297,2.297,2.297h29.733
				c1.266,0,2.297-1.03,2.297-2.297c0-0.294-0.056-0.574-0.157-0.832h7.249c0.028,0,0.051,0.022,0.051,0.049v0.87l0,0
				c0,0.235-0.1,0.461-0.274,0.618L315.553,431.162z"/>
		</g>
	</g>
	<g>
		<g>
			<path fill="#9BB1E8" d="M284.338,409.258h-0.902c-0.343-1.781-1.913-3.129-3.793-3.129c-1.423,0-2.699,0.764-3.375,1.982
				c-0.383-0.269-0.845-0.417-1.319-0.417c-1.267,0-2.297,1.03-2.297,2.297c0,0.405,0.328,0.732,0.732,0.732
				s0.732-0.327,0.732-0.732c0-0.459,0.373-0.833,0.832-0.833c0.237,0,0.456,0.097,0.616,0.272c0.264,0.29,0.649,0.421,1.031,0.351
				c0.372-0.068,0.678-0.319,0.817-0.672c0.365-0.92,1.24-1.515,2.23-1.515c1.322,0,2.397,1.075,2.397,2.397
				c0,0.404,0.328,0.732,0.732,0.732h1.564c0.404,0,0.731-0.328,0.731-0.732C285.07,409.586,284.743,409.258,284.338,409.258z"/>
		</g>
	</g>
	<g>
		<g>
			<path fill="#9BB1E8" d="M310.943,410.823h-4.695c-0.405,0-0.731,0.328-0.731,0.732s0.326,0.732,0.731,0.732h4.695
				c0.403,0,0.73-0.328,0.73-0.732S311.346,410.823,310.943,410.823z"/>
		</g>
	</g>
	<g>
		<g>
			<path fill="#9BB1E8" d="M315.637,410.823h-1.566c-0.403,0-0.731,0.328-0.731,0.732s0.328,0.732,0.731,0.732h1.566
				c0.404,0,0.732-0.328,0.732-0.732S316.042,410.823,315.637,410.823z"/>
		</g>
	</g>
	<g>
		<g>
			<path fill="#9BB1E8" d="M289.816,409.259h-2.348c-0.404,0-0.732,0.327-0.732,0.731c0,0.405,0.328,0.732,0.732,0.732h2.348
				c0.404,0,0.732-0.327,0.732-0.732C290.548,409.586,290.22,409.259,289.816,409.259z"/>
		</g>
	</g>
	<g>
		<g>
			<path fill="#9BB1E8" d="M279.643,412.388h-3.129c-0.404,0-0.732,0.327-0.732,0.732c0,0.404,0.328,0.731,0.732,0.731h3.129
				c0.405,0,0.732-0.328,0.732-0.731C280.375,412.716,280.048,412.388,279.643,412.388z"/>
		</g>
	</g>
</g>
</svg>
