<?xml version="1.0" encoding="utf-8"?>
<!-- Generator: Adobe Illustrator 16.0.0, SVG Export Plug-In . SVG Version: 6.00 Build 0)  -->
<!DOCTYPE svg PUBLIC "-//W3C//DTD SVG 1.1//EN" "http://www.w3.org/Graphics/SVG/1.1/DTD/svg11.dtd">
<svg version="1.1" id="Layer_1" xmlns="http://www.w3.org/2000/svg" xmlns:xlink="http://www.w3.org/1999/xlink" x="0px" y="0px"
	 width="50px" height="50px" viewBox="272.64 395.945 50 50" enable-background="new 272.64 395.945 50 50" xml:space="preserve">
<g>
	<g>
		<path fill="#89D3F0" d="M312.069,416.307c-0.94,0-1.853,0.127-2.72,0.365l-2.654-6.902l0.96-0.987
			c0.393-0.405,0.389-1.05-0.011-1.448l-2.061-2.06c-0.193-0.193-0.456-0.304-0.729-0.304h-5.152c-0.569,0-1.03,0.462-1.03,1.031
			s0.461,1.03,1.03,1.03h4.725l1.042,1.041l-0.713,0.73c-0.286,0.295-0.359,0.719-0.226,1.081c0,0.002,0.002,0.005,0.002,0.008
			l0.948,2.464l-14.023,1.753v-1.924h3.091c0.569,0,1.031-0.462,1.031-1.031s-0.462-1.03-1.031-1.03h-6.183
			c-0.569,0-1.03,0.461-1.03,1.03s0.461,1.031,1.03,1.031h1.031v2.812l-1.439,2.468c-1.421-0.739-3.034-1.158-4.744-1.158
			c-5.682,0-10.306,4.624-10.306,10.305c0,5.685,4.624,10.307,10.306,10.307c4.977,0,9.141-3.547,10.098-8.245h1.415
			c0.426,1.2,1.571,2.063,2.915,2.063c1.705,0,3.091-1.386,3.091-3.092c0-0.713-0.241-1.37-0.649-1.893l6.602-10.269l0.741,1.931
			c-3.356,1.701-5.662,5.187-5.662,9.198c0,5.685,4.624,10.307,10.305,10.307c5.683,0,10.305-4.622,10.305-10.307
			C322.373,420.93,317.75,416.307,312.069,416.307z M283.213,434.857c-4.546,0-8.243-3.698-8.243-8.245
			c0-4.544,3.698-8.243,8.243-8.243c1.332,0,2.59,0.317,3.704,0.88l-4.595,7.876c-0.286,0.492-0.12,1.122,0.372,1.41
			c0.163,0.094,0.342,0.139,0.518,0.139c0,0,0.003,0,0.006,0h7.979C290.28,432.227,287.048,434.857,283.213,434.857z
			 M285.007,426.612l3.623-6.209c1.731,1.513,2.827,3.736,2.827,6.209H285.007z M294.726,426.612h-1.207
			c0-3.233-1.498-6.124-3.836-8.015l0.744-1.275l4.855,8.324C295.043,425.929,294.852,426.256,294.726,426.612z M297.641,428.674
			c-0.569,0-1.031-0.463-1.031-1.029c0-0.57,0.462-1.032,1.031-1.032c0.568,0,1.031,0.462,1.031,1.032
			C298.672,428.211,298.209,428.674,297.641,428.674z M298.35,424.635c-0.229-0.053-0.465-0.082-0.709-0.082
			c-0.199,0-0.392,0.019-0.578,0.055l-4.959-8.501l12.753-1.595L298.35,424.635z M312.069,434.857c-4.547,0-8.245-3.698-8.245-8.245
			c0-3.135,1.764-5.869,4.348-7.263l2.936,7.634c0.159,0.407,0.548,0.661,0.962,0.661c0.122,0,0.247-0.024,0.37-0.069
			c0.531-0.206,0.794-0.801,0.592-1.332l-2.938-7.635c0.635-0.156,1.296-0.239,1.977-0.239c4.544,0,8.243,3.699,8.243,8.243
			C320.312,431.159,316.613,434.857,312.069,434.857z"/>
	</g>
</g>
</svg>
