<?xml version="1.0" encoding="utf-8"?>
<!-- Generator: Adobe Illustrator 21.1.0, SVG Export Plug-In . SVG Version: 6.00 Build 0)  -->
<svg version="1.1" id="圖層_1" xmlns="http://www.w3.org/2000/svg" xmlns:xlink="http://www.w3.org/1999/xlink" x="0px" y="0px"
	 viewBox="0 0 500 500" style="enable-background:new 0 0 500 500;" xml:space="preserve">
<style type="text/css">
	.st0{fill:#FFFFFF;stroke:#231815;stroke-width:30;stroke-linecap:round;stroke-linejoin:round;stroke-miterlimit:10;}
	.st1{fill:#231815;}
	.st2{fill:none;stroke:#231815;stroke-width:11;stroke-linecap:round;stroke-linejoin:round;stroke-miterlimit:10;}
	.st3{fill:none;stroke:#231815;stroke-width:20;stroke-linecap:round;stroke-linejoin:round;stroke-miterlimit:10;}
	.st4{fill:none;stroke:#231815;stroke-width:30;stroke-linecap:round;stroke-linejoin:round;stroke-miterlimit:10;}
	.st5{fill:none;}
	.st6{fill:#8FC8ED;}
	.st7{fill:#FFFFFF;}
	.st8{fill:#FFFFFF;stroke:#231815;stroke-width:11;stroke-linecap:round;stroke-linejoin:round;stroke-miterlimit:10;}
	.st9{fill:#231815;stroke:#231815;stroke-width:0.25;stroke-miterlimit:10;}
</style>
<g>
	<path class="st6" d="M72.3,188.9H55l57.8-36l123.4-0.4c0,0,74.3-52.6,137.8-44.2l22.4,10.4l-19.4,9c0.2,0.4,0.3,0.8,0.4,1.2
		l1.9,6.6l20.5-9.5c2.8-1.3,4.7-4.1,4.7-7.3c0-3.1-1.8-6-4.6-7.3L377.3,101c-0.7-0.3-1.5-0.6-2.3-0.7c-27.9-3.7-60.6,2.9-97.1,19.6
		c-22,10.1-38.5,20.7-44.2,24.5l-120.9,0.4c-1.5,0-2.9,0.4-4.2,1.2l-57.8,36c-3,1.9-4.5,5.6-3.5,9c1,3.4,4.1,5.8,7.7,5.8h16v-1.6
		C70.9,193,71.4,190.8,72.3,188.9z"/>
	<path class="st6" d="M30,268.6l45.3-34.2c-1.9-2-3.2-4.4-3.9-7.1l-55.6,41.9c1.4-0.4,2.9-0.6,4.4-0.6H30z"/>
	<path class="st6" d="M385.3,168.3c-1,1.3-2.2,2.2-3.7,2.7c9,21,27.5,66.3,33.1,97.5h8.1c-6-35-27.8-86.9-35.9-105.5
		C387,164.9,386.5,166.8,385.3,168.3z"/>
	<path class="st6" d="M82.7,238.8c-2.9-0.8-5.4-2.4-7.4-4.5L30,268.6h13.3L82.7,238.8z"/>
	<path class="st6" d="M85.5,179.3l29.6-18.4l121.1-0.4c1.6,0,3.3-0.5,4.6-1.5c0.7-0.5,71.5-50.1,131-42.9l5.6,2.6l-10.7,5l0.3-0.1
		c2.1-0.8,4.4-0.7,6.4,0.3c1.6,0.8,2.9,2.2,3.7,3.8l19.4-9L374,108.3c-63.6-8.4-137.8,44.2-137.8,44.2l-123.4,0.4l-57.8,36h17.3
		C74.6,183.6,79.5,179.9,85.5,179.3z"/>
	<path class="st6" d="M373.1,171.5c8.2,19,27.4,65.4,33.5,97h8.2c-5.6-31.2-24.1-76.5-33.1-97.5c-0.9,0.3-1.8,0.5-2.7,0.5H373.1z"/>
	<path class="st6" d="M422.5,276.6h0.6c2.2,0,4.3,0.9,5.8,2.5c1.5,1.6,2.3,3.7,2.2,5.9l-1.8,46.9h8l1.8-46.5
		c0.2-4.4-1.4-8.6-4.5-11.7c-3-3.1-7.2-4.9-11.5-4.9h-0.2c0,0.2,0.1,0.5,0.1,0.7C423.4,271.8,423.2,274.2,422.5,276.6z"/>
	<path class="st6" d="M42.5,312.3c-16.5-7.8-27.8-17.7-33.7-29.7c-1.7-3.4-0.7-7.6,2.4-9.9l4.7-3.5c-4.9,1.4-9,5.1-10.7,10.1
		c-2.2,6.5-0.1,13.6,5.2,17.8l43.8,34.6h12.9L42.5,312.3z"/>
	<path class="st6" d="M87.4,278.2l20.2,15.2h109.2l19.3-15.1c1.4-1.1,3.1-1.7,4.9-1.7h161.1c3.9-2.7,4.8-4.5,4.9-4.9
		c-0.2-1-0.4-2.1-0.6-3.2H241.1c-3.6,0-7,1.2-9.9,3.4l-17.2,13.4H110.3l-18.1-13.6c-2.8-2.1-6.2-3.2-9.6-3.2H43.3l-10.6,8h49.9
		C84.3,276.6,86,277.1,87.4,278.2z"/>
	<path class="st6" d="M8.8,282.7c5.9,12,17.2,21.9,33.7,29.7l-27.2-21.5c-2.7-2.1-3.7-5.7-2.6-8.9c1-2.9,3.6-4.9,6.6-5.3l10.7-8.1
		h-9.7c-1.5,0-3,0.2-4.4,0.6l-4.7,3.5C8.1,275,7.1,279.2,8.8,282.7z"/>
	<path class="st6" d="M415.1,270.6c0.3,2-0.2,4-1.5,6h8.8c0.8-2.4,0.9-4.8,0.5-7.3c0-0.2-0.1-0.5-0.1-0.7h-8.1
		C414.9,269.2,415,269.9,415.1,270.6z"/>
	<path class="st6" d="M407.2,271.7c-0.1,0.4-1,2.1-4.9,4.9h11.4c1.3-2,1.8-4,1.5-6c-0.1-0.7-0.2-1.3-0.3-2h-8.2
		C406.8,269.6,407,270.7,407.2,271.7z"/>
	<path class="st6" d="M32.7,276.6l10.6-8H30l-10.7,8.1c0.3,0,0.7-0.1,1-0.1H32.7z"/>
	<path class="st6" d="M135.8,331.8H80.1l-13.5-10.6c-9-2.5-17-5.5-24.1-8.8l24.6,19.4L135.8,331.8
		C135.8,331.8,135.8,331.8,135.8,331.8z"/>
	<path class="st6" d="M428.9,279c-1.5-1.6-3.6-2.5-5.8-2.5h-0.6c-0.9,2.8-2.6,5.4-5,8h5.6l-1.8,47.2H213c0,0,0,0,0,0h216.3l1.8-46.9
		C431.2,282.7,430.4,280.6,428.9,279z M423.1,300.6L423.1,300.6L423.1,300.6z"/>
	<path class="st6" d="M104.9,301.4h114.7l21.5-16.8h145.6c7.7-3.2,12.5-5.9,15.5-8H241.1c-1.8,0-3.5,0.6-4.9,1.7l-19.3,15.1H107.6
		l-20.2-15.2c-1.4-1-3.1-1.6-4.8-1.6H32.7l-6,4.5c0.9,1.2,1.9,2.3,3,3.5h52.9L104.9,301.4z"/>
	<polygon class="st6" points="135.8,331.8 213,331.8 213,331.8 135.8,331.8 	"/>
	<path class="st6" d="M404.7,284.6h12.8c2.4-2.6,4.1-5.3,5-8h-8.8C411.9,279.3,408.9,281.9,404.7,284.6z"/>
	<path class="st6" d="M46.8,305.5c-14.7-6.7-25.4-15.4-30.8-26.4l3.3-2.5c-3,0.4-5.6,2.4-6.6,5.3c-1.1,3.2-0.1,6.8,2.6,8.9
		l27.2,21.5c7.1,3.3,15.1,6.3,24.1,8.8L46.8,305.5z"/>
	<path class="st6" d="M386.8,284.6h17.9c4.2-2.7,7.3-5.3,9-8h-11.4C399.2,278.7,394.4,281.4,386.8,284.6z"/>
	<path class="st6" d="M46.8,305.5l-26.5-20.9h9.4c-1.1-1.1-2.1-2.3-3-3.5l6-4.5H20.3c-0.3,0-0.7,0-1,0.1l-3.3,2.5
		C21.4,290.1,32.1,298.8,46.8,305.5z"/>
	<path class="st6" d="M489.4,331.8h-52l0,0.6c-0.3,8.6-7.4,15.4-16,15.4H80.1c-3.6,0-7.1-1.2-9.9-3.4l-16-12.6H10.6
		c-4.4,0-8,3.6-8,8s3.6,8,8,8h478.7c4.4,0,8-3.6,8-8S493.8,331.8,489.4,331.8z"/>
	<path class="st6" d="M80.1,347.8h341.2c8.6,0,15.7-6.8,16-15.4l0-0.6h-8l0,0.3c-0.2,4.3-3.7,7.7-8,7.7H80.1c-1.8,0-3.5-0.6-5-1.7
		l-8-6.3H54.2l16,12.6C73,346.6,76.5,347.8,80.1,347.8z"/>
	<path class="st6" d="M173,332.8c-0.6,0-1.1,0-1.7,0c-12.5,0-24.3-0.4-35.5-1.1H67.1l8,6.3c1.4,1.1,3.2,1.7,5,1.7h341.2
		c4.3,0,7.8-3.4,8-7.7l0-0.3H213C199.5,332.5,186,332.8,173,332.8z"/>
	<path class="st6" d="M171.3,332.8c0.6,0,1.1,0,1.7,0c13,0,26.5-0.4,40-1.1h-77.2C147,332.4,158.9,332.8,171.3,332.8z"/>
	<path class="st6" d="M423.6,358.5H126.6c-4.4,0-8,3.6-8,8s3.6,8,8,8h297.1c4.4,0,8-3.6,8-8S428.1,358.5,423.6,358.5z"/>
	<path class="st6" d="M108.4,366.5c0-4.4-3.6-8-8-8H27.2c-4.4,0-8,3.6-8,8s3.6,8,8,8h73.2C104.8,374.5,108.4,370.9,108.4,366.5z"/>
	<path class="st6" d="M360.6,384.6H219.5c-4.4,0-8,3.6-8,8s3.6,8,8,8h141.1c4.4,0,8-3.6,8-8S365,384.6,360.6,384.6z"/>
	<path class="st6" d="M188.6,384.6H94c-4.4,0-8,3.6-8,8s3.6,8,8,8h94.6c4.4,0,8-3.6,8-8S193,384.6,188.6,384.6z"/>
	<path class="st6" d="M252.7,261h124c5.2,0,10-2.5,13-6.7c3-4.2,3.8-9.6,2.1-14.5l-16.6-48.6c-2.2-6.5-8.3-10.9-15.2-10.9h-98.3
		c-7.7,0-14.3,5.5-15.8,13.1l-9.1,48.6c-0.9,4.7,0.4,9.5,3.4,13.2C243.4,258.8,247.9,261,252.7,261z M244.8,243.5l9.1-48.6
		c0.7-3.8,4-6.5,7.9-6.5h98.3c3.4,0,6.5,2.2,7.6,5.4l16.6,48.6c0.8,2.4,0.4,5.1-1.1,7.2c-1.5,2.1-3.9,3.3-6.5,3.3h-124
		c-2.4,0-4.6-1.1-6.2-2.9C245,248.2,244.4,245.8,244.8,243.5z"/>
	<path class="st6" d="M252.7,252.9h124c2.6,0,5-1.2,6.5-3.3c1.5-2.1,1.9-4.8,1.1-7.2l-16.6-48.6c-1.1-3.2-4.2-5.4-7.6-5.4h-98.3
		c-3.9,0-7.2,2.7-7.9,6.5l-9.1,48.6c-0.4,2.3,0.2,4.8,1.7,6.6C248,251.9,250.3,252.9,252.7,252.9z M261.8,196.3h98.3l16.6,48.6h-124
		L261.8,196.3z"/>
	<path class="st6" d="M142.8,187.3h78.8c4.4,0,8,3.6,8,8v28.1c0,4.4-3.6,8-8,8h-78.8c-2.8,4.8-7.9,8-13.9,8h92.7c8.9,0,16-7.2,16-16
		v-28.1c0-8.9-7.2-16-16-16H129C134.9,179.3,140.1,182.5,142.8,187.3z"/>
	<path class="st6" d="M221.7,195.3v28.1H145c0,2.9-0.8,5.7-2.1,8h78.8c4.4,0,8-3.6,8-8v-28.1c0-4.4-3.6-8-8-8h-78.8
		c1.4,2.4,2.1,5.1,2.1,8H221.7z"/>
	<path class="st6" d="M79,196.9h-8v26.5c0,1.3,0.2,2.6,0.5,3.9l7.5-5.7V196.9z"/>
	<path class="st6" d="M87,179.3c-0.5,0-1,0-1.5,0.1l-2.4,1.5h28.1c1.9,0,3.6,0.7,5,1.8c2.7-2.1,6.1-3.4,9.8-3.4H87z"/>
	<path class="st6" d="M126,239.4c-5.9,0-11.1-3.2-13.9-8H92.5c-0.2,0.2-0.4,0.4-0.7,0.6l-9.1,6.9c1.4,0.4,2.8,0.6,4.3,0.6H126z"/>
	<path class="st6" d="M81.8,229.5c-1.7-1.5-2.8-3.7-2.8-6.1v-1.8l-7.5,5.7c0.7,2.7,2,5.1,3.9,7.1L81.8,229.5z"/>
	<path class="st6" d="M79,195.3c0-2.6,1.3-5,3.2-6.4h-9.9c-0.9,2-1.3,4.1-1.3,6.4v1.6h8V195.3z"/>
	<path class="st6" d="M112.1,187.3c1-1.8,2.4-3.4,4-4.6c-1.4-1.1-3.2-1.8-5-1.8H83l2.4-1.5c-5.9,0.5-10.9,4.3-13.2,9.5h9.9
		c1.3-1,3-1.6,4.8-1.6H112.1z"/>
	<path class="st6" d="M82.7,238.8l9.1-6.9c0.2-0.2,0.5-0.4,0.7-0.6H87c-2,0-3.8-0.7-5.2-1.9l-6.5,4.9
		C77.3,236.5,79.8,238,82.7,238.8z"/>
	<polygon class="st6" points="137,223.4 145,223.4 145,195.3 137,195.3 137,223.4 	"/>
	<path class="st6" d="M118.1,185.1c0.4,0.7,0.6,1.5,0.8,2.2h7h3h13.9c-2.8-4.8-7.9-8-13.9-8h-3c-3.7,0-7.1,1.3-9.8,3.4
		C116.9,183.3,117.6,184.1,118.1,185.1z"/>
	<path class="st6" d="M142.8,231.4H129h-3h-13.9c2.8,4.8,7.9,8,13.9,8h3C134.9,239.4,140.1,236.2,142.8,231.4z"/>
	<path class="st6" d="M118.1,185.1c-0.5-0.9-1.2-1.8-2-2.4c-1.6,1.3-3,2.8-4,4.6h6.9C118.8,186.5,118.5,185.8,118.1,185.1z"/>
	<path class="st6" d="M137,223.4c0,4.4-3.6,8-8,8h13.9c1.4-2.4,2.1-5.1,2.1-8H137z"/>
	<path class="st6" d="M137,195.3h8c0-2.9-0.8-5.7-2.1-8H129C133.4,187.3,137,190.9,137,195.3z"/>
	<polygon class="st6" points="87,211 87,196.9 79,196.9 79,221.6 81,220 	"/>
	<path class="st6" d="M109.9,223.4H98l-4.3,6.6c-0.3,0.5-0.7,1-1.2,1.4h19.6C110.7,229,109.9,226.3,109.9,223.4z"/>
	<path class="st6" d="M88.4,223.4H87V211l-5.9,9l-2.1,1.6v1.8c0,2.4,1.1,4.6,2.8,6.1l5.2-3.9L88.4,223.4z"/>
	<path class="st6" d="M87,195.3h19.9l4.2-6.4H82.2c-2,1.5-3.2,3.8-3.2,6.4v1.6h8V195.3z"/>
	<path class="st6" d="M92.5,231.4c0.4-0.4,0.8-0.9,1.2-1.4l4.3-6.6h-9.6l-1.4,2.2l-5.2,3.9c1.4,1.2,3.2,1.9,5.2,1.9H92.5z"/>
	<path class="st6" d="M106.9,195.3h3.1c0-2.9,0.8-5.7,2.1-8H87c-1.8,0-3.4,0.6-4.8,1.6h28.9L106.9,195.3z"/>
	<polygon class="st6" points="137,223.4 137,223.4 137,195.3 129,195.3 129,223.4 	"/>
	<path class="st6" d="M117.9,223.4h-8c0,2.9,0.8,5.7,2.1,8H126C121.5,231.4,117.9,227.8,117.9,223.4z"/>
	<path class="st6" d="M126,187.3h-7c0.4,2,0,4.2-1.2,6l-1.3,2h1.5C117.9,190.9,121.5,187.3,126,187.3z"/>
	<path class="st6" d="M117.8,193.3c1.2-1.8,1.6-3.9,1.2-6h-6.9c-1.4,2.4-2.1,5.1-2.1,8h6.5L117.8,193.3z"/>
	<path class="st6" d="M117.9,195.3h8h3h8c0-4.4-3.6-8-8-8h-3C121.5,187.3,117.9,190.9,117.9,195.3z"/>
	<path class="st6" d="M137,223.4h-8h-3h-8c0,4.4,3.6,8,8,8h3C133.4,231.4,137,227.8,137,223.4z"/>
	<path class="st6" d="M384.2,157c0.5,1.1,1.4,3.2,2.7,6.1c0-0.6-0.1-1.2-0.3-1.8l-7.4-25.9l-0.2,0.1L384.2,157z"/>
	<path class="st6" d="M275.8,165c0.7,3.8,4,6.6,7.9,6.6h89.5c-1.8-4.1-3-6.9-3.5-8h-85.9l78.5-29.6l-0.2-1c-0.9-3.7,1-7.6,4.4-9.2
		l0.3-0.1L280.8,156C277.2,157.4,275.1,161.1,275.8,165z"/>
	<path class="st6" d="M376.9,127.7l-7.3,3.4l9.3,32.5h-0.6c0.8,1.9,2,4.5,3.3,7.5c1.4-0.5,2.7-1.5,3.7-2.7c1.2-1.5,1.7-3.4,1.6-5.3
		c-1.3-2.9-2.2-5-2.7-6.1l-5.2-21.5l0.2-0.1l-1.9-6.6C377.3,128.4,377.1,128,376.9,127.7z"/>
	<path class="st6" d="M373.3,123.9c-2-1-4.3-1.1-6.4-0.3l-0.3,0.1l-0.3,0.1c-3.5,1.6-5.3,5.4-4.4,9.2l0.2,1l7.6-2.9l7.3-3.4
		C376.2,126,374.9,124.7,373.3,123.9z"/>
	<path class="st6" d="M373.1,171.5h5.8c0.9,0,1.9-0.2,2.7-0.5c-1.3-3.1-2.4-5.6-3.3-7.5h-8.8C370.1,164.7,371.4,167.5,373.1,171.5z"
		/>
	<path class="st6" d="M369.6,163.5c-0.2-0.3-0.2-0.5-0.3-0.6c-0.2-0.5-0.4-0.9-0.5-1.4l-1.5-6h-39.8l36.5-13.8l-1.9-7.8l-78.5,29.6
		H369.6z"/>
	<path class="st6" d="M378.4,163.5h0.6l-9.3-32.5l6.9,28.6C376.6,159.6,377.3,161,378.4,163.5z"/>
	<path class="st6" d="M364,141.7l0.3-0.1l4,13.9h-0.9l1.5,6c0.1,0.5,0.3,1,0.5,1.4c0,0,0.1,0.2,0.3,0.6h8.8
		c-1.1-2.5-1.7-3.9-1.7-3.9l-6.9-28.6l-7.6,2.9L364,141.7z"/>
</g>
</svg>
