<?xml version="1.0" encoding="utf-8"?>
<!-- Generator: Adobe Illustrator 16.0.0, SVG Export Plug-In . SVG Version: 6.00 Build 0)  -->
<!DOCTYPE svg PUBLIC "-//W3C//DTD SVG 1.1//EN" "http://www.w3.org/Graphics/SVG/1.1/DTD/svg11.dtd">
<svg version="1.1" id="Capa_1" xmlns="http://www.w3.org/2000/svg" xmlns:xlink="http://www.w3.org/1999/xlink" x="0px" y="0px"
	 width="50px" height="50px" viewBox="272.64 395.945 50 50" enable-background="new 272.64 395.945 50 50" xml:space="preserve">
<g>
	<g>
		<g>
			<path fill="#8FC8ED" d="M313.776,405.558h-9.059h-14.244h-9.972c-0.822,0-1.49,0.669-1.49,1.491v5.1
				c0,0.538,0.437,0.975,0.975,0.975h10.487h14.244h11.59c0.538,0,0.975-0.437,0.975-0.975v-3.084
				C317.282,407.131,315.709,405.558,313.776,405.558z M289.499,411.174h-8.537v-3.666h8.537V411.174z M303.742,411.174h-12.293
				v-3.666h12.293V411.174z M305.692,411.174v-3.666h8.084c0.858,0,1.556,0.699,1.556,1.557v2.109H305.692z"/>
		</g>
	</g>
	<g>
		<g>
			<path fill="#8FC8ED" d="M316.307,419.275h-11.59h-14.244h-10.487c-0.539,0-0.975,0.437-0.975,0.975v5.615
				c0,0.539,0.437,0.976,0.975,0.976h10.487h14.244h11.59c0.258,0,0.507-0.104,0.689-0.286c0.184-0.184,0.285-0.431,0.285-0.689
				v-5.615C317.282,419.712,316.845,419.275,316.307,419.275z M289.499,424.89h-8.537v-3.666h8.537V424.89z M303.742,424.89h-12.293
				v-3.666h12.293V424.89z M305.692,424.89v-3.666h9.64v3.666H305.692z"/>
		</g>
	</g>
	<g>
		<g>
			<path fill="#8FC8ED" d="M321.625,433.498h-0.832v-16.835v-7.598c0-3.869-3.147-7.017-7.017-7.017h-33.274
				c-2.757,0-5.001,2.244-5.001,5.001v9.613v6.263l-1.406,1.111c-0.912,0.72-1.415,1.828-1.415,3.121v7.315
				c0,0.538,0.437,0.975,0.975,0.975h2.583c0.447,2.495,2.632,4.395,5.253,4.395s4.806-1.899,5.253-4.395h15.691
				c0.447,2.495,2.632,4.395,5.253,4.395s4.807-1.899,5.254-4.395h0.494h6.382h1.807c0.539,0,0.976-0.437,0.976-0.975
				C322.6,433.934,322.164,433.498,321.625,433.498z M277.451,407.049c0-1.683,1.369-3.052,3.051-3.052h33.274
				c2.794,0,5.066,2.273,5.066,5.067v6.623h-41.391V407.049z M276.436,432.795c-0.005,0.016-0.011,0.031-0.016,0.047
				c-0.018,0.056-0.035,0.11-0.052,0.167c-0.007,0.025-0.014,0.051-0.021,0.076c-0.014,0.05-0.027,0.101-0.04,0.151
				c-0.008,0.032-0.015,0.065-0.023,0.1c-0.01,0.044-0.021,0.09-0.029,0.136c-0.002,0.009-0.004,0.019-0.005,0.026h-1.619v-2.382
				h2.739C276.963,431.609,276.645,432.177,276.436,432.795z M281.491,437.892c-1.868,0-3.388-1.52-3.388-3.388
				c0-0.04,0.001-0.08,0.003-0.118c0-0.021,0-0.043,0.002-0.064c0.001-0.034,0.005-0.069,0.008-0.103
				c0.001-0.023,0.003-0.047,0.006-0.07c0.003-0.029,0.007-0.059,0.011-0.087c0.004-0.028,0.007-0.057,0.012-0.085
				c0.003-0.021,0.008-0.044,0.012-0.066c0.006-0.034,0.012-0.067,0.019-0.102c0.003-0.015,0.007-0.027,0.01-0.042
				c0.009-0.042,0.019-0.084,0.03-0.125c0.001-0.004,0.002-0.009,0.003-0.012c0.388-1.444,1.711-2.514,3.273-2.514
				c1.561,0,2.885,1.068,3.273,2.514c0.001,0.003,0.003,0.008,0.003,0.012c0.011,0.041,0.021,0.083,0.03,0.125
				c0.003,0.015,0.006,0.027,0.009,0.042c0.007,0.034,0.013,0.067,0.019,0.102c0.004,0.022,0.009,0.045,0.013,0.066
				c0.004,0.028,0.007,0.057,0.011,0.085c0.004,0.028,0.009,0.058,0.012,0.087c0.002,0.023,0.003,0.047,0.005,0.07
				c0.003,0.033,0.006,0.068,0.008,0.103c0.001,0.021,0.001,0.043,0.002,0.064c0.001,0.038,0.003,0.078,0.003,0.118
				C284.879,436.373,283.36,437.892,281.491,437.892z M302.632,432.795c-0.005,0.016-0.011,0.031-0.016,0.047
				c-0.018,0.056-0.035,0.11-0.052,0.167c-0.007,0.025-0.015,0.051-0.021,0.076c-0.014,0.05-0.027,0.101-0.04,0.151
				c-0.008,0.032-0.016,0.065-0.022,0.1c-0.01,0.044-0.021,0.09-0.029,0.136c-0.002,0.01-0.005,0.019-0.006,0.026h-15.712
				c-0.001-0.008-0.004-0.017-0.006-0.026c-0.009-0.046-0.019-0.092-0.029-0.136c-0.007-0.034-0.015-0.067-0.023-0.1
				c-0.012-0.051-0.026-0.102-0.04-0.151c-0.007-0.025-0.014-0.051-0.022-0.076c-0.016-0.057-0.033-0.111-0.052-0.167
				c-0.004-0.016-0.01-0.031-0.016-0.047c-0.209-0.617-0.528-1.185-0.934-1.679h17.954
				C303.161,431.61,302.841,432.177,302.632,432.795z M307.688,437.892c-1.868,0-3.388-1.52-3.388-3.388
				c0-0.037,0.001-0.075,0.002-0.112c0.001-0.023,0.001-0.048,0.003-0.072c0.002-0.031,0.005-0.063,0.008-0.095
				c0.002-0.025,0.003-0.052,0.006-0.077c0.003-0.027,0.008-0.054,0.012-0.081c0.003-0.03,0.007-0.061,0.011-0.09
				c0.003-0.021,0.008-0.042,0.012-0.063c0.006-0.034,0.012-0.07,0.02-0.106c0.002-0.013,0.006-0.024,0.008-0.037
				c0.01-0.044,0.021-0.087,0.031-0.129c0.001-0.004,0.001-0.006,0.003-0.009c0.386-1.446,1.711-2.518,3.273-2.518
				c1.563,0,2.889,1.071,3.274,2.518c0.001,0.003,0.001,0.005,0.002,0.009c0.011,0.042,0.022,0.085,0.031,0.129
				c0.003,0.013,0.007,0.024,0.009,0.037c0.007,0.036,0.014,0.072,0.02,0.106c0.003,0.021,0.008,0.041,0.012,0.063
				c0.004,0.029,0.007,0.06,0.012,0.09c0.004,0.027,0.008,0.054,0.01,0.081c0.004,0.025,0.005,0.052,0.008,0.077
				c0.002,0.031,0.005,0.063,0.007,0.095c0.001,0.024,0.001,0.049,0.002,0.072c0.002,0.037,0.003,0.075,0.003,0.112
				C311.077,436.373,309.557,437.892,307.688,437.892z M318.842,433.498h-5.406h-0.506c-0.001-0.008-0.003-0.017-0.004-0.026
				c-0.01-0.046-0.02-0.092-0.03-0.136c-0.008-0.034-0.015-0.067-0.023-0.1c-0.012-0.051-0.026-0.102-0.039-0.151
				c-0.008-0.025-0.015-0.051-0.021-0.076c-0.018-0.057-0.034-0.111-0.052-0.167c-0.005-0.016-0.011-0.031-0.016-0.047
				c-0.21-0.617-0.528-1.186-0.935-1.679h0.865c0.538,0,0.975-0.437,0.975-0.975s-0.437-0.975-0.975-0.975H274.63v-2.009
				c0-0.483,0.117-1.152,0.673-1.592l1.777-1.403c0.234-0.185,0.37-0.467,0.37-0.765v-5.761h41.391V433.498z"/>
		</g>
	</g>
	<g>
		<g>
			<path fill="#8FC8ED" d="M317.727,429.951c-0.012-0.063-0.031-0.124-0.056-0.182c-0.023-0.06-0.054-0.116-0.089-0.169
				c-0.036-0.054-0.077-0.104-0.121-0.148c-0.227-0.226-0.563-0.33-0.881-0.266c-0.061,0.012-0.122,0.031-0.183,0.056
				c-0.059,0.023-0.114,0.054-0.167,0.09c-0.054,0.035-0.104,0.076-0.148,0.12c-0.045,0.045-0.086,0.095-0.122,0.148
				c-0.035,0.053-0.064,0.109-0.09,0.169c-0.024,0.058-0.042,0.119-0.056,0.182c-0.012,0.063-0.018,0.128-0.018,0.19
				c0,0.063,0.006,0.128,0.018,0.19c0.014,0.062,0.031,0.124,0.056,0.183c0.025,0.06,0.055,0.116,0.09,0.168
				c0.036,0.054,0.077,0.104,0.122,0.148s0.095,0.086,0.148,0.122c0.053,0.034,0.108,0.064,0.167,0.09
				c0.061,0.022,0.122,0.042,0.183,0.056c0.063,0.012,0.128,0.018,0.191,0.018c0.256,0,0.508-0.104,0.689-0.285
				c0.044-0.045,0.085-0.095,0.121-0.147c0.035-0.053,0.065-0.109,0.089-0.169c0.024-0.059,0.044-0.12,0.056-0.183
				c0.013-0.063,0.021-0.127,0.021-0.19C317.748,430.079,317.74,430.013,317.727,429.951z"/>
		</g>
	</g>
</g>
</svg>
