<?xml version="1.0" encoding="utf-8"?>
<!-- Generator: Adobe Illustrator 21.1.0, SVG Export Plug-In . SVG Version: 6.00 Build 0)  -->
<svg version="1.1" id="圖層_1" xmlns="http://www.w3.org/2000/svg" xmlns:xlink="http://www.w3.org/1999/xlink" x="0px" y="0px"
	 viewBox="0 0 500 500" style="enable-background:new 0 0 500 500;" xml:space="preserve">
<style type="text/css">
	.st0{fill:#FFFFFF;stroke:#231815;stroke-width:30;stroke-linecap:round;stroke-linejoin:round;stroke-miterlimit:10;}
	.st1{fill:#231815;}
	.st2{fill:none;stroke:#231815;stroke-width:11;stroke-linecap:round;stroke-linejoin:round;stroke-miterlimit:10;}
	.st3{fill:none;stroke:#231815;stroke-width:20;stroke-linecap:round;stroke-linejoin:round;stroke-miterlimit:10;}
	.st4{fill:none;stroke:#231815;stroke-width:30;stroke-linecap:round;stroke-linejoin:round;stroke-miterlimit:10;}
	.st5{fill:none;}
	.st6{fill:#8FC8ED;}
	.st7{fill:#FFFFFF;}
	.st8{fill:#FFFFFF;stroke:#231815;stroke-width:11;stroke-linecap:round;stroke-linejoin:round;stroke-miterlimit:10;}
	.st9{fill:#231815;stroke:#231815;stroke-width:0.25;stroke-miterlimit:10;}
</style>
<g>
	<polygon class="st5" points="461.2,124.9 461.9,198.9 478.8,198.9 478.8,124.9 	"/>
	<path class="st5" d="M144.2,327.2c-0.6,4-1.6,8.2-2.8,12.6h20.3C158.2,333.2,151.8,328.4,144.2,327.2z"/>
	<path class="st5" d="M121.5,335.6c-1.1,1.3-2,2.7-2.8,4.2h1.4C120.6,338.4,121,337,121.5,335.6z"/>
	<path class="st5" d="M125,309.2c-1-17.8-9-29.8-13.4-35.1c-5.7,0.7-13.7-0.4-22.8-7.4c-11.7-8.9-37.3-15.9-53.4-19.5l17.3,52.3
		l46.9,33C104.6,321.8,113.8,313.3,125,309.2z"/>
	<path class="st5" d="M431.2,125.6v79.4c0,11.2-9.1,20.3-20.3,20.3h-34.7c-11.2,0-20.3-9.1-20.3-20.3v-79.4c0-0.2,0-0.5,0-0.7h-9.9
		l-3.2,0c0,0.2,0,0.4,0,0.7v79.4c0,11.2-9.1,20.3-20.3,20.3H288c-11.2,0-20.3-9.1-20.3-20.3v-79.4c0-0.1,0-0.2,0-0.3l-13,0.1
		c0,0.1,0,0.2,0,0.3v79.4c0,11.2-9.1,20.3-20.3,20.3h-32.2c0.8,0.4,1.7,0.9,2.5,1.3c18.1,10.2,29.7,27.2,33.6,49.1
		c2.5,14.2,0.9,26.2,0.4,29c-0.3,3.5-2.3,17.4-14.2,35.1h143.3c5.1-19.1,22.5-33.2,43.1-33.2s38.1,14.1,43.1,33.2h25V219.1h-37.2
		l-0.9-94.3h-9.8C431.1,125.1,431.2,125.3,431.2,125.6z"/>
	<path class="st5" d="M410.9,326.8c-9.3,0-17.4,5.2-21.5,12.9h43C428.3,332.1,420.2,326.8,410.9,326.8z"/>
	<path class="st5" d="M218.6,302.7c0-0.5,0.1-0.7,0.2-1.2c0-0.1,1.8-10.6-0.5-23c-2.9-15.6-10.8-27.2-23.5-34.3
		c-28.4-16.1-55.4,8.3-62.3,15.3c-0.7,1.1-1.7,2.8-3.2,4.5c3.1,4.2,6.8,10.2,9.9,17.7c2.7,6.6,5.1,15.1,5.8,25.2
		c18.5,2,33.6,15.4,38.2,32.9h15.6c0.1-0.2,0.3-0.4,0.4-0.5C216.5,319.7,218.5,303.8,218.6,302.7z M174.6,297
		c-14.1,0-25.6-11.5-25.6-25.6s11.5-25.6,25.6-25.6s25.6,11.5,25.6,25.6S188.7,297,174.6,297z"/>
	<circle class="st5" cx="174.6" cy="271.4" r="5.4"/>
	<path class="st5" d="M140.2,375.5c10.3,0,19.2-6.4,22.7-15.5h-45.4C121,369.1,129.9,375.5,140.2,375.5z"/>
	<path class="st5" d="M101.1,250.7c2.4,1.9,5.9,3.9,8.6,3.3c2.9-0.7,5.2-4.3,5.5-5c0.5-1,1.1-1.8,1.8-2.6l0,0
		c2.7-2.9,12.8-12.9,27.1-20.1c14.1-7,28.2-9.3,41.6-6.8c-3.8-3.7-6.2-8.9-6.2-14.6v-79.3l-29.6,0.1c0,0.3,0,0.5,0,0.8
		c0,0.1,0,0.3,0,0.4l-0.7,77.1c-0.1,11.1-9.1,20.1-20.3,20.1H27.7l0.4,1.1c0.4,0,0.8,0.1,1.2,0.1C34.4,226.3,80.2,234.8,101.1,250.7
		z"/>
	<rect x="376.2" y="125.6" class="st5" width="34.7" height="79.4"/>
	<path class="st5" d="M410.9,375.5c10.3,0,19.2-6.4,22.7-15.5h-45.4C391.7,369.1,400.6,375.5,410.9,375.5z"/>
	<polygon class="st5" points="129.7,126.5 21,203.8 129,203.8 	"/>
	<rect x="199.8" y="125.6" class="st5" width="34.7" height="79.4"/>
	<rect x="288" y="125.6" class="st5" width="34.7" height="79.4"/>
	<path class="st6" d="M356,124.8l-9.9,0L356,124.8C356,124.9,356,124.8,356,124.8z"/>
	<path class="st6" d="M431.1,124.5c0,0.1,0,0.2,0,0.4h9.8l0-0.4L431.1,124.5z"/>
	<path class="st6" d="M339.6,104.6c-0.2,0-0.4,0-0.6,0l7,0H339.6z"/>
	<path class="st6" d="M461.2,124.3l0,0.6h17.6v74h0.2c10.3,0,18.7,7.6,20.1,17.5V114.7c0-5.6-4.5-10.1-10.1-10.1H445
		C454.1,106.5,461.1,114.6,461.2,124.3z"/>
	<path class="st6" d="M5.1,191.3c0.2-0.2,0.3-0.4,0.5-0.6C5.5,190.8,5.3,191,5.1,191.3z"/>
	<path class="st6" d="M7.4,188.9c0.2-0.2,0.4-0.4,0.6-0.5C7.7,188.5,7.6,188.7,7.4,188.9z"/>
	<path class="st6" d="M6.2,190c0.2-0.2,0.3-0.4,0.5-0.6C6.6,189.6,6.4,189.8,6.2,190z"/>
	<path class="st6" d="M440.9,104.2C440.9,104.2,440.8,104.2,440.9,104.2l-94.9,0.4h99C443.7,104.4,442.3,104.2,440.9,104.2z"/>
	<path class="st6" d="M499.1,216.4v0.7c0,5.6-4.5,10.1-10.1,10.1s-10.1-4.5-10.1-10.1v-18.2h-16.9l-0.7-74h-20.3l0.9,94.3H479v120.6
		h-25c1,3.6,1.5,7.5,1.5,11.4c0,3-0.3,6-0.9,8.8H479c11.2,0,20.3-9.1,20.3-20.3V219.1C499.3,218.2,499.2,217.3,499.1,216.4z"/>
	<path class="st6" d="M346.1,124.9h-3.2c0,0,0,0,0,0L346.1,124.9z"/>
	<path class="st6" d="M3.4,193.9c0.1-0.2,0.2-0.5,0.4-0.7C3.6,193.4,3.5,193.7,3.4,193.9z"/>
	<path class="st6" d="M0.8,204.5c0-0.3,0-0.5,0-0.8C0.7,204,0.8,204.3,0.8,204.5z"/>
	<path class="st6" d="M0.9,206.1c0-0.3-0.1-0.5-0.1-0.8C0.8,205.6,0.9,205.9,0.9,206.1z"/>
	<path class="st6" d="M1.1,207.7c-0.1-0.3-0.1-0.5-0.2-0.8C1,207.2,1.1,207.5,1.1,207.7z"/>
	<path class="st6" d="M0.8,202.9c0-0.3,0-0.5,0-0.8C0.8,202.4,0.8,202.7,0.8,202.9z"/>
	<path class="st6" d="M1.5,209.3c-0.1-0.3-0.2-0.5-0.2-0.8C1.4,208.8,1.4,209,1.5,209.3z"/>
	<path class="st6" d="M1.5,198.2c0.1-0.2,0.1-0.5,0.2-0.7C1.7,197.7,1.6,198,1.5,198.2z"/>
	<path class="st6" d="M2.7,195.3c0.1-0.2,0.2-0.5,0.3-0.7C2.9,194.8,2.8,195.1,2.7,195.3z"/>
	<path class="st6" d="M0.9,201.3c0-0.3,0.1-0.5,0.1-0.8C1,200.8,0.9,201.1,0.9,201.3z"/>
	<path class="st6" d="M2,196.7c0.1-0.2,0.2-0.5,0.3-0.7C2.2,196.3,2.1,196.5,2,196.7z"/>
	<path class="st6" d="M1.2,199.8c0.1-0.3,0.1-0.5,0.2-0.8C1.3,199.3,1.2,199.5,1.2,199.8z"/>
	<path class="st6" d="M4.2,192.5c0.1-0.2,0.3-0.4,0.4-0.6C4.5,192.1,4.4,192.3,4.2,192.5z"/>
	<path class="st6" d="M99.7,332.6l-46.9-33l-17.3-52.3c-3.9-0.9-7.2-1.5-9.7-2c-5.5-1-9.2-6.2-8.2-11.7c0.9-5.1,5.5-8.6,10.5-8.3
		l-0.4-1.1H21c-8.8,0-16.5-5.7-19.3-14c0,0,0,0.1,0,0.1l31.7,95.7c1.4,4.1,4,7.7,7.6,10.2l54.6,38.5c-0.1-1.1-0.1-2.2-0.1-3.4
		C95.6,344.5,97,338.2,99.7,332.6z"/>
	<path class="st6" d="M117.8,110.1c3.3-2.4,7.3-3.8,11.7-3.9c0,0,0,0,0,0h0c0.1,0,0.2,0,0.3,0c0.1,0,0.2,0,0.3,0
		c10.8,0.2,19.6,8.8,19.9,19.5l29.6-0.1v0c0-11.2,9.1-20.3,20.3-20.3h34.7c11.1,0,20.1,8.9,20.2,20l13-0.1
		c0.2-11,9.2-19.9,20.2-19.9h34.7c3.5,0,6.8,0.9,9.6,2.4c1.7-1.8,4.1-2.9,6.7-3.1l-209,0.9c-4.2,0-8.3,1.3-11.7,3.8l-109.1,78
		c-0.2,0.1-0.4,0.3-0.6,0.5c0.2-0.2,0.4-0.3,0.6-0.5L117.8,110.1z"/>
	<path class="st6" d="M367.8,339.8H224.5c-2.8,4.1-6,8.4-10,12.9c-2,2.3-4.8,3.4-7.6,3.4c-2.4,0-4.8-0.8-6.7-2.5
		c-4-3.5-4.5-9.6-1.3-13.7h-15.6c1,3.6,1.5,7.5,1.5,11.4c0,3-0.3,6-0.9,8.8h183.2c-0.6-2.9-0.9-5.8-0.9-8.8
		C366.3,347.2,366.8,343.4,367.8,339.8z"/>
	<path class="st6" d="M479,198.9h-0.2v18.2c0,5.6,4.5,10.1,10.1,10.1s10.1-4.5,10.1-10.1v-0.7C497.7,206.5,489.2,198.9,479,198.9z"
		/>
	<path class="st6" d="M332.3,107.7c6.1,3.3,10.3,9.7,10.6,17.1h3.2l9.9,0c0.4-10.9,9.3-19.5,20.2-19.5h34.7
		c10.8,0,19.7,8.5,20.2,19.2l9.8,0l0,0.4h20.3l0-0.6c-0.1-9.7-7-17.8-16.2-19.7h-99l-7,0C336.4,104.8,334,106,332.3,107.7z"/>
	<path class="st6" d="M2.3,196c0.1-0.2,0.2-0.5,0.3-0.7C2.5,195.5,2.4,195.8,2.3,196z"/>
	<path class="st6" d="M3,194.6c0.1-0.2,0.3-0.5,0.4-0.7C3.2,194.1,3.1,194.4,3,194.6z"/>
	<path class="st6" d="M3.8,193.2c0.1-0.2,0.3-0.4,0.4-0.7C4.1,192.8,3.9,193,3.8,193.2z"/>
	<path class="st6" d="M4.6,191.9c0.2-0.2,0.3-0.4,0.5-0.6C5,191.5,4.8,191.7,4.6,191.9z"/>
	<path class="st6" d="M1.8,197.5c0.1-0.3,0.2-0.5,0.3-0.8C1.9,197,1.8,197.2,1.8,197.5z"/>
	<path class="st6" d="M5.6,190.6c0.2-0.2,0.4-0.4,0.6-0.6C6,190.2,5.8,190.4,5.6,190.6z"/>
	<path class="st6" d="M0.7,203.7c0-0.3,0-0.5,0-0.8C0.8,203.2,0.7,203.5,0.7,203.7z"/>
	<path class="st6" d="M0.8,205.3c0-0.3,0-0.5,0-0.8C0.8,204.8,0.8,205.1,0.8,205.3z"/>
	<path class="st6" d="M1,206.9c0-0.3-0.1-0.5-0.1-0.8C0.9,206.4,0.9,206.7,1,206.9z"/>
	<path class="st6" d="M1.7,210c0,0,0,0.1,0,0.1c-0.1-0.3-0.2-0.5-0.2-0.8C1.6,209.5,1.6,209.8,1.7,210z"/>
	<path class="st6" d="M1,200.6c0-0.3,0.1-0.5,0.2-0.8C1.1,200,1.1,200.3,1,200.6z"/>
	<path class="st6" d="M6.7,189.5c0.2-0.2,0.4-0.4,0.6-0.6C7.2,189.1,6.9,189.3,6.7,189.5z"/>
	<path class="st6" d="M1.3,199c0.1-0.3,0.1-0.5,0.2-0.8C1.5,198.5,1.4,198.8,1.3,199z"/>
	<path class="st6" d="M0.8,202.1c0-0.3,0.1-0.5,0.1-0.8C0.9,201.6,0.8,201.9,0.8,202.1z"/>
	<path class="st6" d="M1.3,208.5c-0.1-0.3-0.1-0.5-0.2-0.8C1.2,208,1.2,208.3,1.3,208.5z"/>
	<path class="st6" d="M149.3,204l0.7-77.1c0-0.1,0-0.3,0-0.4c0-0.3,0-0.5,0-0.8l-19.8,0.1L21,203.8l108.7-77.4h0h0l-0.7,77.4H21
		l6.7,20.3H129C140.1,224.1,149.2,215.1,149.3,204z M129.7,146.7L129.7,146.7L129.7,146.7z"/>
	<path class="st6" d="M7.9,188.4c0.2-0.2,0.5-0.4,0.7-0.5C8.4,188,8.2,188.2,7.9,188.4z"/>
	<path class="st6" d="M21,224.1h6.7L21,203.8l109.1-78l19.8-0.1c-0.4-10.7-9.1-19.3-19.9-19.5c-0.1,0-0.2,0-0.3,0
		c-0.1,0-0.2,0-0.3,0h0c0,0,0,0,0,0c-4.4,0.1-8.4,1.5-11.7,3.9L9.3,187.3c-0.2,0.2-0.4,0.3-0.6,0.5c-0.2,0.2-0.5,0.3-0.7,0.5
		c-0.2,0.2-0.4,0.4-0.6,0.5c-0.2,0.2-0.4,0.4-0.6,0.6c-0.2,0.2-0.4,0.4-0.5,0.6c-0.2,0.2-0.4,0.4-0.6,0.6c-0.2,0.2-0.3,0.4-0.5,0.6
		c-0.2,0.2-0.3,0.4-0.5,0.6c-0.2,0.2-0.3,0.4-0.4,0.6c-0.2,0.2-0.3,0.4-0.4,0.7c-0.1,0.2-0.3,0.4-0.4,0.7c-0.1,0.2-0.3,0.5-0.4,0.7
		c-0.1,0.2-0.2,0.5-0.3,0.7c-0.1,0.2-0.2,0.5-0.3,0.7c-0.1,0.2-0.2,0.5-0.3,0.7c-0.1,0.3-0.2,0.5-0.3,0.8c-0.1,0.2-0.1,0.5-0.2,0.7
		c-0.1,0.3-0.2,0.5-0.2,0.8c-0.1,0.2-0.1,0.5-0.2,0.8c-0.1,0.3-0.1,0.5-0.2,0.8c0,0.3-0.1,0.5-0.1,0.8c0,0.3-0.1,0.5-0.1,0.8
		c0,0.3,0,0.5,0,0.8c0,0.3,0,0.5,0,0.8c0,0.3,0,0.5,0,0.8c0,0.3,0,0.5,0,0.8c0,0.3,0.1,0.5,0.1,0.8c0,0.3,0.1,0.5,0.1,0.8
		c0,0.3,0.1,0.5,0.2,0.8c0.1,0.3,0.1,0.5,0.2,0.8c0.1,0.3,0.1,0.5,0.2,0.8c0.1,0.3,0.1,0.5,0.2,0.8C4.5,218.4,12.2,224.1,21,224.1z"
		/>
	<path class="st6" d="M185.7,219.5c5.6,1,11.2,2.9,16.5,5.7h32.2c11.2,0,20.3-9.1,20.3-20.3v-79.4c0-0.1,0-0.2,0-0.3l-75.2,0.3v79.3
		C179.5,210.7,181.9,215.8,185.7,219.5z M199.8,125.6h34.7v79.4h-34.7V125.6z"/>
	<path class="st6" d="M234.4,105.3h-34.7c-11.2,0-20.3,9.1-20.3,20.3v0l75.2-0.3C254.5,114.2,245.5,105.3,234.4,105.3z"/>
	<path class="st6" d="M267.7,204.9c0,11.2,9.1,20.3,20.3,20.3h34.7c11.2,0,20.3-9.1,20.3-20.3v-79.4c0-0.2,0-0.4,0-0.7l-75.2,0.3
		c0,0.1,0,0.2,0,0.3V204.9z M288,125.6h34.7v79.4H288V125.6z"/>
	<path class="st6" d="M342.9,124.9h-3.3c-5.6,0-10.1-4.5-10.1-10.1c0-2.7,1.1-5.2,2.8-7c-2.9-1.6-6.2-2.4-9.6-2.4H288
		c-11.1,0-20.1,8.9-20.2,19.9L342.9,124.9C342.9,124.9,342.9,124.9,342.9,124.9z"/>
	<path class="st6" d="M339.6,124.9h3.3c-0.2-7.4-4.5-13.8-10.6-17.1c-1.7,1.8-2.8,4.3-2.8,7C329.5,120.3,334,124.9,339.6,124.9z"/>
	<path class="st6" d="M356,125.6v79.4c0,11.2,9.1,20.3,20.3,20.3h34.7c11.2,0,20.3-9.1,20.3-20.3v-79.4c0-0.2,0-0.5,0-0.7H356
		C356,125.1,356,125.3,356,125.6z M376.2,125.6h34.7v79.4h-34.7V125.6z"/>
	<path class="st6" d="M431.1,124.9c0-0.1,0-0.2,0-0.4l-75.2,0.3c0,0,0,0,0,0H431.1z"/>
	<path class="st6" d="M410.9,105.3h-34.7c-10.9,0-19.9,8.7-20.2,19.5l75.2-0.3C430.6,113.8,421.7,105.3,410.9,105.3z"/>
	<path class="st6" d="M238.3,275.6c-3.8-21.9-15.5-38.8-33.6-49.1c-0.8-0.5-1.7-0.9-2.5-1.3h-2.5c-5.5,0-10.4-2.2-14-5.7
		c-13.4-2.5-27.5-0.2-41.6,6.8c-14.3,7.1-24.4,17.2-27.1,20.1l0,0c-0.7,0.8-1.4,1.6-1.8,2.6c-0.3,0.6-2.6,4.3-5.5,5
		c-2.7,0.6-6.2-1.4-8.6-3.3c-20.9-15.9-66.6-24.4-71.8-25.3c-0.4-0.1-0.8-0.1-1.2-0.1l7.3,22c16.1,3.6,41.7,10.7,53.4,19.5
		c9.1,7,17.1,8,22.8,7.4c-1.5-1.8-2.5-2.8-2.7-3l6.9-7.4l6.9-7.5c0.5,0.5,3.3,3.1,6.7,7.7c1.4-1.7,2.5-3.3,3.2-4.5
		c6.9-7,33.8-31.4,62.3-15.3c12.7,7.2,20.6,18.7,23.5,34.3c2.3,12.5,0.5,23,0.5,23c-0.1,0.5-0.1,0.7-0.2,1.2
		c-0.1,1.1-2,17-19.2,36.5c-0.2,0.2-0.3,0.4-0.4,0.5h25.6c11.9-17.8,13.9-31.6,14.2-35.1C239.2,301.8,240.8,289.8,238.3,275.6z"/>
	<path class="st6" d="M17.6,233.6c-1,5.5,2.7,10.8,8.2,11.7c2.4,0.4,5.8,1.1,9.7,2l-7.3-22C23,224.9,18.5,228.5,17.6,233.6z"/>
	<path class="st6" d="M200.2,353.5c1.9,1.7,4.3,2.5,6.7,2.5c2.8,0,5.6-1.2,7.6-3.4c3.9-4.4,7.2-8.8,10-12.9h-25.6
		C195.7,343.9,196.2,350,200.2,353.5z"/>
	<path class="st6" d="M199.8,225.2h2.5c-5.4-2.7-10.9-4.6-16.5-5.7C189.4,223,194.3,225.2,199.8,225.2z"/>
	<path class="st6" d="M140.2,306.6c1.7,0,3.3,0.1,4.9,0.3c-0.7-10.1-3.1-18.6-5.8-25.2c-3.1-7.6-6.8-13.5-9.9-17.7
		c-3.1,3.7-8,8-14.9,9.7c-0.9,0.2-1.8,0.4-2.8,0.5c4.3,5.3,12.4,17.3,13.4,35.1C129.7,307.5,134.9,306.6,140.2,306.6z"/>
	<path class="st6" d="M129.3,264c-3.4-4.6-6.1-7.2-6.7-7.7l-6.9,7.5l-6.9,7.4c0.2,0.2,1.2,1.2,2.7,3c1-0.1,1.9-0.3,2.8-0.5
		C121.3,272,126.2,267.7,129.3,264z"/>
	<path class="st6" d="M174.6,245.8c-14.1,0-25.6,11.5-25.6,25.6s11.5,25.6,25.6,25.6s25.6-11.5,25.6-25.6S188.7,245.8,174.6,245.8z
		 M174.6,276.7c-3,0-5.4-2.4-5.4-5.4s2.4-5.4,5.4-5.4s5.4,2.4,5.4,5.4S177.5,276.7,174.6,276.7z"/>
	<path class="st6" d="M125,309.2c-11.2,4.1-20.4,12.6-25.3,23.3l10.2,7.2h8.8c0.8-1.5,1.7-2.9,2.8-4.2
		C124.6,325.8,125.4,317,125,309.2z"/>
	<path class="st6" d="M145.1,306.8c0.4,6.2,0.3,13-0.9,20.3c7.6,1.3,14,6,17.5,12.6h21.6C178.7,322.2,163.6,308.9,145.1,306.8z"/>
	<path class="st6" d="M140.2,375.5c-10.3,0-19.2-6.4-22.7-15.5h-7.6c-4.2,0-8.2-1.3-11.7-3.7l-2.5-1.8c1.7,23,21,41.2,44.5,41.2
		c21.6,0,39.6-15.4,43.7-35.8h-21C159.3,369.1,150.5,375.5,140.2,375.5z"/>
	<path class="st6" d="M183.3,339.8h-21.6c1.8,3.4,2.8,7.3,2.8,11.4c0,3.1-0.6,6.1-1.7,8.8h21c0.6-2.9,0.9-5.8,0.9-8.8
		C184.8,347.2,184.3,343.4,183.3,339.8z"/>
	<path class="st6" d="M109.9,360h7.6c-1.1-2.7-1.7-5.7-1.7-8.8c0-4.1,1-8,2.8-11.4h-8.8l-10.2-7.2c-2.6,5.7-4.1,12-4.1,18.6
		c0,1.1,0.1,2.3,0.1,3.4l2.5,1.8C101.6,358.7,105.7,360,109.9,360z"/>
	<path class="st6" d="M125,309.2c0.4,7.7-0.4,16.5-3.5,26.4c4.5-5.4,11.2-8.8,18.7-8.8c1.4,0,2.7,0.1,4,0.3
		c1.2-7.3,1.3-14.1,0.9-20.3c-1.6-0.2-3.3-0.3-4.9-0.3C134.9,306.6,129.7,307.5,125,309.2z"/>
	<path class="st6" d="M410.9,306.6c-20.7,0-38.1,14.1-43.1,33.2h21.6c4.1-7.7,12.2-12.9,21.5-12.9s17.4,5.2,21.5,12.9H454
		C449,320.7,431.6,306.6,410.9,306.6z"/>
	<path class="st6" d="M410.9,375.5c-10.3,0-19.2-6.4-22.7-15.5h-21c4.1,20.4,22.2,35.8,43.7,35.8c21.6,0,39.6-15.4,43.7-35.8h-21
		C430.1,369.1,421.2,375.5,410.9,375.5z"/>
	<path class="st6" d="M454,339.8h-21.6c1.8,3.4,2.8,7.3,2.8,11.4c0,3.1-0.6,6.1-1.7,8.8h21c0.6-2.9,0.9-5.8,0.9-8.8
		C455.5,347.2,455,343.4,454,339.8z"/>
	<path class="st6" d="M386.5,351.2c0-4.1,1-8,2.8-11.4h-21.6c-1,3.6-1.5,7.5-1.5,11.4c0,3,0.3,6,0.9,8.8h21
		C387.1,357.3,386.5,354.3,386.5,351.2z"/>
</g>
</svg>
